<mxfile host="app.diagrams.net" agent="Mozilla/5.0 (Windows NT 10.0; Win64; x64) AppleWebKit/537.36 (KHTML, like Gecko) Chrome/133.0.0.0 Safari/537.36" version="26.1.0">
  <diagram name="Page-1" id="PTD732QXnxCYavxdE1-F">
    <mxGraphModel grid="1" page="1" gridSize="10" guides="1" tooltips="1" connect="1" arrows="1" fold="1" pageScale="1" pageWidth="850" pageHeight="1100" math="0" shadow="0">
      <root>
        <mxCell id="0" />
        <mxCell id="1" parent="0" />
        <mxCell id="VQm6y0g7SMvkwWxCb0YH-1" value="" style="ellipse;whiteSpace=wrap;html=1;aspect=fixed;" vertex="1" parent="1">
          <mxGeometry x="80" y="60" width="40" height="40" as="geometry" />
        </mxCell>
        <mxCell id="VQm6y0g7SMvkwWxCb0YH-3" value="" style="endArrow=classic;html=1;rounded=0;" edge="1" parent="1">
          <mxGeometry width="50" height="50" relative="1" as="geometry">
            <mxPoint x="120" y="79.5" as="sourcePoint" />
            <mxPoint x="210" y="79.5" as="targetPoint" />
          </mxGeometry>
        </mxCell>
        <mxCell id="VQm6y0g7SMvkwWxCb0YH-5" value="Start Game" style="rounded=1;whiteSpace=wrap;html=1;" vertex="1" parent="1">
          <mxGeometry x="210" y="50" width="120" height="60" as="geometry" />
        </mxCell>
        <mxCell id="VQm6y0g7SMvkwWxCb0YH-6" value="" style="endArrow=classic;html=1;rounded=0;" edge="1" parent="1">
          <mxGeometry width="50" height="50" relative="1" as="geometry">
            <mxPoint x="330" y="79.83" as="sourcePoint" />
            <mxPoint x="420" y="79.83" as="targetPoint" />
          </mxGeometry>
        </mxCell>
        <mxCell id="VQm6y0g7SMvkwWxCb0YH-7" value="Error" style="rounded=1;whiteSpace=wrap;html=1;" vertex="1" parent="1">
          <mxGeometry x="420" y="50" width="120" height="60" as="geometry" />
        </mxCell>
        <mxCell id="VQm6y0g7SMvkwWxCb0YH-8" value="error starting game" style="text;html=1;align=center;verticalAlign=middle;whiteSpace=wrap;rounded=0;" vertex="1" parent="1">
          <mxGeometry x="340" y="30" width="70" height="40" as="geometry" />
        </mxCell>
        <mxCell id="VQm6y0g7SMvkwWxCb0YH-9" value="" style="endArrow=classic;html=1;rounded=0;" edge="1" parent="1">
          <mxGeometry width="50" height="50" relative="1" as="geometry">
            <mxPoint x="269.8" y="110" as="sourcePoint" />
            <mxPoint x="270" y="170" as="targetPoint" />
          </mxGeometry>
        </mxCell>
        <mxCell id="VQm6y0g7SMvkwWxCb0YH-10" value="P1 Moves" style="rounded=1;whiteSpace=wrap;html=1;" vertex="1" parent="1">
          <mxGeometry x="210" y="170" width="120" height="60" as="geometry" />
        </mxCell>
        <mxCell id="VQm6y0g7SMvkwWxCb0YH-12" value="P2 Moves" style="rounded=1;whiteSpace=wrap;html=1;" vertex="1" parent="1">
          <mxGeometry x="210" y="530" width="120" height="60" as="geometry" />
        </mxCell>
        <mxCell id="VQm6y0g7SMvkwWxCb0YH-14" value="" style="endArrow=classic;html=1;rounded=0;" edge="1" parent="1">
          <mxGeometry width="50" height="50" relative="1" as="geometry">
            <mxPoint x="330" y="190" as="sourcePoint" />
            <mxPoint x="420" y="190" as="targetPoint" />
            <Array as="points">
              <mxPoint x="370" y="190.16999999999996" />
            </Array>
          </mxGeometry>
        </mxCell>
        <mxCell id="VQm6y0g7SMvkwWxCb0YH-15" value="Error" style="rounded=1;whiteSpace=wrap;html=1;" vertex="1" parent="1">
          <mxGeometry x="420" y="170" width="120" height="60" as="geometry" />
        </mxCell>
        <mxCell id="VQm6y0g7SMvkwWxCb0YH-16" value="" style="endArrow=classic;html=1;rounded=0;" edge="1" parent="1">
          <mxGeometry width="50" height="50" relative="1" as="geometry">
            <mxPoint x="330" y="550" as="sourcePoint" />
            <mxPoint x="420" y="550" as="targetPoint" />
          </mxGeometry>
        </mxCell>
        <mxCell id="VQm6y0g7SMvkwWxCb0YH-17" value="Error" style="rounded=1;whiteSpace=wrap;html=1;" vertex="1" parent="1">
          <mxGeometry x="420" y="530" width="120" height="60" as="geometry" />
        </mxCell>
        <mxCell id="VQm6y0g7SMvkwWxCb0YH-18" value="Error on P1 move" style="text;html=1;align=center;verticalAlign=middle;whiteSpace=wrap;rounded=0;" vertex="1" parent="1">
          <mxGeometry x="340" y="150" width="70" height="40" as="geometry" />
        </mxCell>
        <mxCell id="VQm6y0g7SMvkwWxCb0YH-19" value="Error on P2 move" style="text;html=1;align=center;verticalAlign=middle;whiteSpace=wrap;rounded=0;" vertex="1" parent="1">
          <mxGeometry x="340" y="510" width="70" height="40" as="geometry" />
        </mxCell>
        <mxCell id="VQm6y0g7SMvkwWxCb0YH-20" value="" style="endArrow=classic;html=1;rounded=0;" edge="1" parent="1">
          <mxGeometry width="50" height="50" relative="1" as="geometry">
            <mxPoint x="420" y="570" as="sourcePoint" />
            <mxPoint x="330" y="570" as="targetPoint" />
          </mxGeometry>
        </mxCell>
        <mxCell id="VQm6y0g7SMvkwWxCb0YH-21" value="" style="endArrow=classic;html=1;rounded=0;" edge="1" parent="1">
          <mxGeometry width="50" height="50" relative="1" as="geometry">
            <mxPoint x="420" y="210" as="sourcePoint" />
            <mxPoint x="330" y="210" as="targetPoint" />
          </mxGeometry>
        </mxCell>
        <mxCell id="VQm6y0g7SMvkwWxCb0YH-22" value="P1 Tries to move again" style="text;html=1;align=center;verticalAlign=middle;whiteSpace=wrap;rounded=0;" vertex="1" parent="1">
          <mxGeometry x="345" y="220" width="60" height="30" as="geometry" />
        </mxCell>
        <mxCell id="VQm6y0g7SMvkwWxCb0YH-23" value="P2 Tries to move again" style="text;html=1;align=center;verticalAlign=middle;whiteSpace=wrap;rounded=0;" vertex="1" parent="1">
          <mxGeometry x="345" y="590" width="60" height="30" as="geometry" />
        </mxCell>
        <mxCell id="VQm6y0g7SMvkwWxCb0YH-26" value="Check if P1 Wins" style="rounded=1;whiteSpace=wrap;html=1;" vertex="1" parent="1">
          <mxGeometry x="210" y="290" width="120" height="60" as="geometry" />
        </mxCell>
        <mxCell id="VQm6y0g7SMvkwWxCb0YH-29" value="Check if P2 Wins" style="rounded=1;whiteSpace=wrap;html=1;" vertex="1" parent="1">
          <mxGeometry x="210" y="650" width="120" height="60" as="geometry" />
        </mxCell>
        <mxCell id="VQm6y0g7SMvkwWxCb0YH-31" value="" style="endArrow=classic;html=1;rounded=0;" edge="1" parent="1">
          <mxGeometry width="50" height="50" relative="1" as="geometry">
            <mxPoint x="269.71" y="230" as="sourcePoint" />
            <mxPoint x="270" y="290" as="targetPoint" />
          </mxGeometry>
        </mxCell>
        <mxCell id="VQm6y0g7SMvkwWxCb0YH-32" value="" style="endArrow=classic;html=1;rounded=0;" edge="1" parent="1">
          <mxGeometry width="50" height="50" relative="1" as="geometry">
            <mxPoint x="269.71" y="350" as="sourcePoint" />
            <mxPoint x="270" y="410" as="targetPoint" />
          </mxGeometry>
        </mxCell>
        <mxCell id="VQm6y0g7SMvkwWxCb0YH-35" value="" style="endArrow=classic;html=1;rounded=0;" edge="1" parent="1">
          <mxGeometry width="50" height="50" relative="1" as="geometry">
            <mxPoint x="269.71000000000004" y="590" as="sourcePoint" />
            <mxPoint x="270" y="650" as="targetPoint" />
          </mxGeometry>
        </mxCell>
        <mxCell id="VQm6y0g7SMvkwWxCb0YH-39" value="" style="endArrow=classic;html=1;rounded=0;" edge="1" parent="1">
          <mxGeometry width="50" height="50" relative="1" as="geometry">
            <mxPoint x="330" y="319.71" as="sourcePoint" />
            <mxPoint x="420" y="319.71" as="targetPoint" />
          </mxGeometry>
        </mxCell>
        <mxCell id="VQm6y0g7SMvkwWxCb0YH-40" value="" style="endArrow=classic;html=1;rounded=0;" edge="1" parent="1">
          <mxGeometry width="50" height="50" relative="1" as="geometry">
            <mxPoint x="330" y="679.71" as="sourcePoint" />
            <mxPoint x="420" y="679.71" as="targetPoint" />
          </mxGeometry>
        </mxCell>
        <mxCell id="VQm6y0g7SMvkwWxCb0YH-41" value="End Game" style="rounded=1;whiteSpace=wrap;html=1;" vertex="1" parent="1">
          <mxGeometry x="420" y="290" width="120" height="60" as="geometry" />
        </mxCell>
        <mxCell id="VQm6y0g7SMvkwWxCb0YH-42" value="End Game" style="rounded=1;whiteSpace=wrap;html=1;" vertex="1" parent="1">
          <mxGeometry x="420" y="650" width="120" height="60" as="geometry" />
        </mxCell>
        <mxCell id="VQm6y0g7SMvkwWxCb0YH-43" value="" style="endArrow=classic;html=1;rounded=0;" edge="1" parent="1">
          <mxGeometry width="50" height="50" relative="1" as="geometry">
            <mxPoint x="540" y="319.5" as="sourcePoint" />
            <mxPoint x="630" y="319.5" as="targetPoint" />
          </mxGeometry>
        </mxCell>
        <mxCell id="VQm6y0g7SMvkwWxCb0YH-44" value="" style="endArrow=classic;html=1;rounded=0;" edge="1" parent="1">
          <mxGeometry width="50" height="50" relative="1" as="geometry">
            <mxPoint x="540" y="679.5" as="sourcePoint" />
            <mxPoint x="630" y="679.5" as="targetPoint" />
          </mxGeometry>
        </mxCell>
        <mxCell id="VQm6y0g7SMvkwWxCb0YH-45" value="" style="ellipse;whiteSpace=wrap;html=1;aspect=fixed;" vertex="1" parent="1">
          <mxGeometry x="630" y="300" width="40" height="40" as="geometry" />
        </mxCell>
        <mxCell id="VQm6y0g7SMvkwWxCb0YH-46" value="" style="ellipse;whiteSpace=wrap;html=1;aspect=fixed;" vertex="1" parent="1">
          <mxGeometry x="630" y="660" width="40" height="40" as="geometry" />
        </mxCell>
        <mxCell id="VQm6y0g7SMvkwWxCb0YH-50" value="P1 Successful move" style="text;html=1;align=center;verticalAlign=middle;whiteSpace=wrap;rounded=0;" vertex="1" parent="1">
          <mxGeometry x="200" y="240" width="60" height="30" as="geometry" />
        </mxCell>
        <mxCell id="VQm6y0g7SMvkwWxCb0YH-51" value="P2 Successful move" style="text;html=1;align=center;verticalAlign=middle;whiteSpace=wrap;rounded=0;" vertex="1" parent="1">
          <mxGeometry x="200" y="600" width="60" height="30" as="geometry" />
        </mxCell>
        <mxCell id="VQm6y0g7SMvkwWxCb0YH-52" value="P1 has won" style="text;html=1;align=center;verticalAlign=middle;whiteSpace=wrap;rounded=0;" vertex="1" parent="1">
          <mxGeometry x="340" y="280" width="60" height="30" as="geometry" />
        </mxCell>
        <mxCell id="VQm6y0g7SMvkwWxCb0YH-53" value="P2 has won" style="text;html=1;align=center;verticalAlign=middle;whiteSpace=wrap;rounded=0;" vertex="1" parent="1">
          <mxGeometry x="340" y="640" width="60" height="30" as="geometry" />
        </mxCell>
        <mxCell id="VQm6y0g7SMvkwWxCb0YH-57" value="If P2 has not won P1 Moves again" style="text;html=1;align=center;verticalAlign=middle;whiteSpace=wrap;rounded=0;" vertex="1" parent="1">
          <mxGeometry x="80" y="370" width="60" height="30" as="geometry" />
        </mxCell>
        <mxCell id="VQm6y0g7SMvkwWxCb0YH-58" value="Set state 10" style="text;html=1;align=center;verticalAlign=middle;whiteSpace=wrap;rounded=0;" vertex="1" parent="1">
          <mxGeometry x="550" y="280" width="60" height="30" as="geometry" />
        </mxCell>
        <mxCell id="VQm6y0g7SMvkwWxCb0YH-59" value="Set state 01" style="text;html=1;align=center;verticalAlign=middle;whiteSpace=wrap;rounded=0;" vertex="1" parent="1">
          <mxGeometry x="550" y="640" width="60" height="30" as="geometry" />
        </mxCell>
        <mxCell id="VQm6y0g7SMvkwWxCb0YH-60" value="Set state 00" style="text;html=1;align=center;verticalAlign=middle;whiteSpace=wrap;rounded=0;" vertex="1" parent="1">
          <mxGeometry x="200" y="120" width="60" height="30" as="geometry" />
        </mxCell>
        <mxCell id="VQm6y0g7SMvkwWxCb0YH-61" value="If P1 has not won P2 Moves" style="text;html=1;align=center;verticalAlign=middle;whiteSpace=wrap;rounded=0;" vertex="1" parent="1">
          <mxGeometry x="200" y="360" width="60" height="30" as="geometry" />
        </mxCell>
        <mxCell id="VQm6y0g7SMvkwWxCb0YH-62" value="" style="endArrow=classic;html=1;rounded=0;" edge="1" parent="1">
          <mxGeometry width="50" height="50" relative="1" as="geometry">
            <mxPoint x="269.5799999999999" y="710" as="sourcePoint" />
            <mxPoint x="269.87" y="770" as="targetPoint" />
          </mxGeometry>
        </mxCell>
        <mxCell id="VQm6y0g7SMvkwWxCb0YH-63" value="Check if P1 has moves possible" style="rounded=1;whiteSpace=wrap;html=1;" vertex="1" parent="1">
          <mxGeometry x="210" y="770" width="120" height="60" as="geometry" />
        </mxCell>
        <mxCell id="VQm6y0g7SMvkwWxCb0YH-64" value="" style="endArrow=classic;html=1;rounded=0;" edge="1" parent="1">
          <mxGeometry width="50" height="50" relative="1" as="geometry">
            <mxPoint x="330" y="799.71" as="sourcePoint" />
            <mxPoint x="420" y="799.71" as="targetPoint" />
          </mxGeometry>
        </mxCell>
        <mxCell id="VQm6y0g7SMvkwWxCb0YH-65" value="End Game" style="rounded=1;whiteSpace=wrap;html=1;" vertex="1" parent="1">
          <mxGeometry x="420" y="770" width="120" height="60" as="geometry" />
        </mxCell>
        <mxCell id="VQm6y0g7SMvkwWxCb0YH-66" value="" style="endArrow=classic;html=1;rounded=0;" edge="1" parent="1">
          <mxGeometry width="50" height="50" relative="1" as="geometry">
            <mxPoint x="540" y="799.5" as="sourcePoint" />
            <mxPoint x="630" y="799.5" as="targetPoint" />
          </mxGeometry>
        </mxCell>
        <mxCell id="VQm6y0g7SMvkwWxCb0YH-67" value="" style="ellipse;whiteSpace=wrap;html=1;aspect=fixed;" vertex="1" parent="1">
          <mxGeometry x="630" y="780" width="40" height="40" as="geometry" />
        </mxCell>
        <mxCell id="VQm6y0g7SMvkwWxCb0YH-68" value="Set state 11" style="text;html=1;align=center;verticalAlign=middle;whiteSpace=wrap;rounded=0;" vertex="1" parent="1">
          <mxGeometry x="550" y="760" width="60" height="30" as="geometry" />
        </mxCell>
        <mxCell id="VQm6y0g7SMvkwWxCb0YH-69" value="If moves not possible" style="text;html=1;align=center;verticalAlign=middle;whiteSpace=wrap;rounded=0;" vertex="1" parent="1">
          <mxGeometry x="340" y="760" width="60" height="30" as="geometry" />
        </mxCell>
        <mxCell id="VQm6y0g7SMvkwWxCb0YH-70" value="" style="endArrow=classic;html=1;rounded=0;" edge="1" parent="1">
          <mxGeometry width="50" height="50" relative="1" as="geometry">
            <mxPoint x="150" y="200" as="sourcePoint" />
            <mxPoint x="210" y="199.83" as="targetPoint" />
            <Array as="points">
              <mxPoint x="160" y="199.99999999999997" />
            </Array>
          </mxGeometry>
        </mxCell>
        <mxCell id="VQm6y0g7SMvkwWxCb0YH-71" value="" style="endArrow=none;html=1;rounded=0;" edge="1" parent="1">
          <mxGeometry width="50" height="50" relative="1" as="geometry">
            <mxPoint x="150" y="800" as="sourcePoint" />
            <mxPoint x="150" y="200" as="targetPoint" />
          </mxGeometry>
        </mxCell>
        <mxCell id="VQm6y0g7SMvkwWxCb0YH-73" value="Check if P2 has moves possible" style="rounded=1;whiteSpace=wrap;html=1;" vertex="1" parent="1">
          <mxGeometry x="210" y="410" width="120" height="60" as="geometry" />
        </mxCell>
        <mxCell id="VQm6y0g7SMvkwWxCb0YH-74" value="" style="endArrow=classic;html=1;rounded=0;" edge="1" parent="1">
          <mxGeometry width="50" height="50" relative="1" as="geometry">
            <mxPoint x="269.5" y="470" as="sourcePoint" />
            <mxPoint x="269.79" y="530" as="targetPoint" />
          </mxGeometry>
        </mxCell>
        <mxCell id="VQm6y0g7SMvkwWxCb0YH-75" value="If P2 has a valid move" style="text;html=1;align=center;verticalAlign=middle;whiteSpace=wrap;rounded=0;" vertex="1" parent="1">
          <mxGeometry x="200" y="480" width="60" height="30" as="geometry" />
        </mxCell>
        <mxCell id="VQm6y0g7SMvkwWxCb0YH-76" value="" style="endArrow=none;html=1;rounded=0;entryX=0;entryY=0.5;entryDx=0;entryDy=0;" edge="1" parent="1" target="VQm6y0g7SMvkwWxCb0YH-63">
          <mxGeometry width="50" height="50" relative="1" as="geometry">
            <mxPoint x="150" y="800" as="sourcePoint" />
            <mxPoint x="200" y="750" as="targetPoint" />
          </mxGeometry>
        </mxCell>
        <mxCell id="VQm6y0g7SMvkwWxCb0YH-77" value="" style="endArrow=classic;html=1;rounded=0;" edge="1" parent="1">
          <mxGeometry width="50" height="50" relative="1" as="geometry">
            <mxPoint x="330" y="439.71000000000004" as="sourcePoint" />
            <mxPoint x="420" y="439.71000000000004" as="targetPoint" />
          </mxGeometry>
        </mxCell>
        <mxCell id="VQm6y0g7SMvkwWxCb0YH-78" value="End Game" style="rounded=1;whiteSpace=wrap;html=1;" vertex="1" parent="1">
          <mxGeometry x="420" y="410" width="120" height="60" as="geometry" />
        </mxCell>
        <mxCell id="VQm6y0g7SMvkwWxCb0YH-79" value="" style="endArrow=classic;html=1;rounded=0;" edge="1" parent="1">
          <mxGeometry width="50" height="50" relative="1" as="geometry">
            <mxPoint x="540" y="439.5" as="sourcePoint" />
            <mxPoint x="630" y="439.5" as="targetPoint" />
          </mxGeometry>
        </mxCell>
        <mxCell id="VQm6y0g7SMvkwWxCb0YH-80" value="" style="ellipse;whiteSpace=wrap;html=1;aspect=fixed;" vertex="1" parent="1">
          <mxGeometry x="630" y="420" width="40" height="40" as="geometry" />
        </mxCell>
        <mxCell id="VQm6y0g7SMvkwWxCb0YH-81" value="Set state 11" style="text;html=1;align=center;verticalAlign=middle;whiteSpace=wrap;rounded=0;" vertex="1" parent="1">
          <mxGeometry x="550" y="400" width="60" height="30" as="geometry" />
        </mxCell>
        <mxCell id="VQm6y0g7SMvkwWxCb0YH-82" value="If moves not possible" style="text;html=1;align=center;verticalAlign=middle;whiteSpace=wrap;rounded=0;" vertex="1" parent="1">
          <mxGeometry x="340" y="400" width="60" height="30" as="geometry" />
        </mxCell>
        <mxCell id="VQm6y0g7SMvkwWxCb0YH-83" value="Start" style="text;html=1;align=center;verticalAlign=middle;whiteSpace=wrap;rounded=0;" vertex="1" parent="1">
          <mxGeometry x="70" y="20" width="60" height="30" as="geometry" />
        </mxCell>
        <mxCell id="VQm6y0g7SMvkwWxCb0YH-84" value="End" style="text;html=1;align=center;verticalAlign=middle;whiteSpace=wrap;rounded=0;" vertex="1" parent="1">
          <mxGeometry x="620" y="260" width="60" height="30" as="geometry" />
        </mxCell>
        <mxCell id="VQm6y0g7SMvkwWxCb0YH-85" value="End" style="text;html=1;align=center;verticalAlign=middle;whiteSpace=wrap;rounded=0;" vertex="1" parent="1">
          <mxGeometry x="620" y="380" width="60" height="30" as="geometry" />
        </mxCell>
        <mxCell id="VQm6y0g7SMvkwWxCb0YH-86" value="End" style="text;html=1;align=center;verticalAlign=middle;whiteSpace=wrap;rounded=0;" vertex="1" parent="1">
          <mxGeometry x="620" y="620" width="60" height="30" as="geometry" />
        </mxCell>
        <mxCell id="VQm6y0g7SMvkwWxCb0YH-87" value="End" style="text;html=1;align=center;verticalAlign=middle;whiteSpace=wrap;rounded=0;" vertex="1" parent="1">
          <mxGeometry x="620" y="740" width="60" height="30" as="geometry" />
        </mxCell>
      </root>
    </mxGraphModel>
  </diagram>
</mxfile>
